#!OML:ASF F:\VICON\USERDATA\INSTALL\rory7\rory7.ASF
:FULLY-SPECIFIED
:DEGREES
652
root 0.466593 18.8309 2.46763 -4.42409 -6.22725 1.53446
lowerback 5.28105 1.42982 -2.02818
upperback 0.863961 1.75658 -1.3886
thorax -2.08801 0.885656 -0.412868
lowerneck -5.04876 -3.65273 -6.51983
upperneck 7.23326 -5.12862 9.16566
head 3.379 -2.35746 3.61303
rclavicle 1.5009e-014 -1.43125e-014
rhumerus 22.0924 19.9778 -57.3096
rradius 131.066
rwrist -15.0498
rhand -34.7661 -1.56676
rfingers 7.12502
rthumb -7.91898 -31.3984
lclavicle 1.5009e-014 -1.43125e-014
lhumerus -33.9913 15.3357 69.7128
lradius 21.7466
lwrist -11.8846
lhand -26.6329 25.6417
lfingers 7.12502
lthumb -0.0655312 55.6214
rfemur 7.86013 20.5754 17.4627
rtibia 8.52941
rfoot -11.1607 -23.0002
rtoes -6.65119
lfemur 7.30362 -7.84879 -19.5173
ltibia 8.84847
lfoot -10.6845 17.814
ltoes -5.32465
653
root 0.466808 18.8313 2.46825 -4.39149 -6.20235 1.50139
lowerback 5.26961 1.41994 -1.99157
upperback 0.84126 1.74571 -1.37505
thorax -2.10421 0.880211 -0.418742
lowerneck -4.85345 -3.61208 -6.55817
upperneck 7.38535 -5.09749 9.24711
head 3.39228 -2.34299 3.64901
rclavicle 2.60229e-014 -2.38542e-015
rhumerus 21.763 20.2711 -57.5558
rradius 131.105
rwrist -15.374
rhand -34.5179 -1.38089
rfingers 7.12502
rthumb -7.67948 -31.2215
lclavicle 2.60229e-014 -2.38542e-015
lhumerus -34.0672 15.1038 69.8259
lradius 21.8264
lwrist -11.3517
lhand -26.4575 25.5389
lfingers 7.12502
lthumb 0.103891 55.5186
rfemur 7.77188 20.5466 17.4831
rtibia 8.63516
rfoot -11.2247 -22.9867
rtoes -6.55907
lfemur 7.30052 -7.87682 -19.474
ltibia 8.78157
lfoot -10.6364 17.8467
ltoes -5.45929
654
root 0.466822 18.8315 2.46811 -4.40183 -6.19237 1.51912
lowerback 5.32683 1.41785 -2.01045
upperback 0.807793 1.73915 -1.38045
thorax -2.17097 0.877517 -0.415434
lowerneck -4.86005 -3.6042 -6.55969
upperneck 7.76357 -5.11497 9.27681
head 3.50864 -2.34563 3.65677
rclavicle 4.80958e-014 -2.10712e-014
rhumerus 21.3756 20.6827 -57.96
rradius 131.231
rwrist -15.4227
rhand -33.8005 -2.43465
rfingers 7.12502
rthumb -6.98697 -32.2993
lclavicle 4.80958e-014 -2.10712e-014
lhumerus -34.1364 14.9497 69.8687
lradius 21.8297
lwrist -10.9411
lhand -26.6322 25.3939
lfingers 7.12502
lthumb -0.0648734 55.3736
rfemur 7.70605 20.5392 17.4596
rtibia 8.7574
rfoot -11.2745 -22.9929
rtoes -6.48404
lfemur 7.35135 -7.88513 -19.4967
ltibia 8.6991
lfoot -10.6122 17.8528
ltoes -5.38939
655
root 0.466195 18.8318 2.46884 -4.42145 -6.1994 1.5903
lowerback 5.34849 1.41987 -2.0929
upperback 0.798973 1.73583 -1.39344
thorax -2.19418 0.876576 -0.383199
lowerneck -4.89819 -3.59134 -6.5381
upperneck 8.14113 -5.11921 9.23171
head 3.6267 -2.34328 3.63801
rclavicle -3.384e-014 9.93923e-015
rhumerus 21.0193 21.073 -58.2787
rradius 131.38
rwrist -15.3752
rhand -33.3794 -3.83226
rfingers 7.12502
rthumb -6.58051 -33.71
lclavicle -3.384e-014 9.93923e-015
lhumerus -34.1904 15.1043 69.7536
lradius 21.823
lwrist -11.1681
lhand -26.7403 25.3102
lfingers 7.12502
lthumb -0.169264 55.2899
rfemur 7.68056 20.5528 17.3863
rtibia 8.84701
rfoot -11.3412 -22.989
rtoes -6.54228
lfemur 7.39544 -7.87167 -19.5784
ltibia 8.64385
lfoot -10.6542 17.8166
ltoes -5.00101
656
root 0.464231 18.8315 2.47013 -4.44902 -6.22815 1.58873
lowerback 5.36769 1.42179 -2.12494
upperback 0.798981 1.73673 -1.35808
thorax -2.20696 0.877443 -0.329543
lowerneck -4.73371 -3.57402 -6.52138
upperneck 8.3259 -5.10734 9.1232
head 3.65035 -2.34342 3.60487
rclavicle 2.70021e-014 1.78906e-014
rhumerus 20.7092 21.5316 -58.413
rradius 131.423
rwrist -15.6075
rhand -33.8822 -3.48496
rfingers 7.12502
rthumb -7.0659 -33.347
lclavicle 2.70021e-014 1.78906e-014
lhumerus -34.2984 15.4614 69.5642
lradius 21.8591
lwrist -11.8537
lhand -26.9225 25.2793
lfingers 7.12502
lthumb -0.345224 55.2588
rfemur 7.67755 20.5809 17.4117
rtibia 8.94774
rfoot -11.4333 -22.9657
rtoes -6.58743
lfemur 7.46164 -7.8444 -19.5689
ltibia 8.57833
lfoot -10.647 17.7954
ltoes -4.78829
657
root 0.462819 18.8304 2.47189 -4.47029 -6.24877 1.61272
lowerback 5.37652 1.45961 -2.15303
upperback 0.857349 1.78633 -1.36441
thorax -2.15301 0.901754 -0.323158
lowerneck -4.62752 -3.62637 -6.43249
upperneck 8.40757 -5.18927 9.05319
head 3.65966 -2.38576 3.56569
rclavicle 2.86506e-014 4.77083e-015
rhumerus 20.4422 21.8091 -58.534
rradius 131.496
rwrist -15.9075
rhand -34.3125 -3.1767
rfingers 7.12502
rthumb -7.48126 -33.0244
lclavicle 2.86506e-014 4.77083e-015
lhumerus -34.2341 15.5969 69.5112
lradius 21.8647
lwrist -12.17
lhand -27.0817 25.2001
lfingers 7.12502
lthumb -0.498995 55.1792
rfemur 7.65187 20.6045 17.3919
rtibia 9.02355
rfoot -11.4679 -22.953
rtoes -6.62019
lfemur 7.50494 -7.82259 -19.5894
ltibia 8.55658
lfoot -10.5834 17.8035
ltoes -5.04224
658
root 0.461621 18.8305 2.47251 -4.48398 -6.24638 1.60769
lowerback 5.37568 1.51781 -2.13079
upperback 0.979805 1.86675 -1.41461
thorax -2.02502 0.940267 -0.390662
lowerneck -4.89802 -3.72072 -6.24113
upperneck 8.69527 -5.33934 9.04799
head 3.79842 -2.44343 3.51921
rclavicle -2.66511e-014 1.47101e-014
rhumerus 20.205 21.8249 -58.7437
rradius 131.598
rwrist -16.153
rhand -34.3806 -3.42904
rfingers 7.12502
rthumb -7.54695 -33.2744
lclavicle -2.66511e-014 1.47101e-014
lhumerus -33.9425 15.5208 69.5608
lradius 21.8143
lwrist -12.1083
lhand -27.1557 24.8568
lfingers 7.12502
lthumb -0.570438 54.8358
rfemur 7.6715 20.6016 17.4059
rtibia 9.01209
rfoot -11.4604 -22.9528
rtoes -6.55227
lfemur 7.49082 -7.82576 -19.584
ltibia 8.63156
lfoot -10.5978 17.8068
ltoes -5.31178
659
root 0.459109 18.8322 2.47097 -4.51317 -6.26258 1.49959
lowerback 5.41637 1.54183 -2.03798
upperback 1.03788 1.90451 -1.39418
thorax -1.98603 0.958128 -0.424359
lowerneck -5.05938 -3.74224 -6.19727
upperneck 9.08269 -5.39622 9.09191
head 3.94658 -2.45872 3.51914
rclavicle 2.19859e-014 -1.27222e-014
rhumerus 19.9017 21.9737 -58.9933
rradius 131.611
rwrist -16.395
rhand -34.3616 -3.23677
rfingers 7.12502
rthumb -7.52856 -33.0828
lclavicle 2.19859e-014 -1.27222e-014
lhumerus -33.8 15.4654 69.6003
lradius 21.7349
lwrist -12.0693
lhand -27.2464 24.593
lfingers 7.12502
lthumb -0.658101 54.5717
rfemur 7.76499 20.6065 17.5653
rtibia 8.94526
rfoot -11.4442 -22.9562
rtoes -6.36245
lfemur 7.46908 -7.82062 -19.4615
ltibia 8.75024
lfoot -10.6761 17.7981
ltoes -5.32432
660
root 0.458123 18.8329 2.46908 -4.51032 -6.27822 1.45022
lowerback 5.43102 1.53891 -2.00522
upperback 1.03202 1.90286 -1.35145
thorax -2.00062 0.957311 -0.399213
lowerneck -4.93428 -3.68909 -6.32865
upperneck 9.30221 -5.34467 9.19832
head 3.99355 -2.43311 3.57887
rclavicle -4.16361e-015 3.97569e-016
rhumerus 19.5665 22.2542 -59.2268
rradius 131.646
rwrist -16.5747
rhand -34.1436 -3.13447
rfingers 7.12502
rthumb -7.31823 -32.9879
lclavicle -4.16361e-015 3.97569e-016
lhumerus -33.8208 15.5007 69.6053
lradius 21.5994
lwrist -12.017
lhand -27.4772 24.7329
lfingers 7.12502
lthumb -0.88097 54.7108
rfemur 7.79273 20.6171 17.6243
rtibia 8.87233
rfoot -11.3795 -22.9677
rtoes -6.39943
lfemur 7.39976 -7.81012 -19.401
ltibia 8.86753
lfoot -10.7367 17.7715
ltoes -5.2109
